<svg width="47" height="47" viewBox="0 0 47 47" fill="none" xmlns="http://www.w3.org/2000/svg">
<path d="M28.7679 13.1404C28.9494 13.3216 29.0935 13.5368 29.1918 13.7737C29.29 14.0106 29.3406 14.2646 29.3406 14.521C29.3406 14.7775 29.29 15.0315 29.1918 15.2684C29.0935 15.5053 28.9494 15.7205 28.7679 15.9017L21.1696 23.5L28.7679 31.0983C29.1341 31.4645 29.3398 31.9611 29.3398 32.4789C29.3398 32.9968 29.1341 33.4934 28.7679 33.8596C28.4017 34.2257 27.9051 34.4314 27.3873 34.4314C26.8694 34.4314 26.3728 34.2257 26.0067 33.8596L17.0179 24.8708C16.8364 24.6897 16.6923 24.4745 16.5941 24.2375C16.4958 24.0006 16.4452 23.7467 16.4452 23.4902C16.4452 23.2337 16.4958 22.9798 16.5941 22.7429C16.6923 22.5059 16.8364 22.2907 17.0179 22.1096L26.0067 13.1208C26.7508 12.3767 28.0042 12.3767 28.7679 13.1404Z" fill="#9747FF"/>
</svg>
