<svg width="47" height="47" viewBox="0 0 47 47" fill="none" xmlns="http://www.w3.org/2000/svg">
<path d="M18.2321 13.1404C18.0506 13.3216 17.9065 13.5368 17.8082 13.7737C17.71 14.0106 17.6594 14.2646 17.6594 14.521C17.6594 14.7775 17.71 15.0315 17.8082 15.2684C17.9065 15.5053 18.0506 15.7205 18.2321 15.9017L25.8304 23.5L18.2321 31.0983C17.8659 31.4645 17.6602 31.9611 17.6602 32.4789C17.6602 32.9968 17.8659 33.4934 18.2321 33.8596C18.5983 34.2257 19.0949 34.4314 19.6127 34.4314C20.1306 34.4314 20.6272 34.2257 20.9933 33.8596L29.9821 24.8708C30.1636 24.6897 30.3077 24.4745 30.4059 24.2375C30.5042 24.0006 30.5548 23.7467 30.5548 23.4902C30.5548 23.2337 30.5042 22.9798 30.4059 22.7429C30.3077 22.5059 30.1636 22.2907 29.9821 22.1096L20.9933 13.1208C20.2492 12.3767 18.9958 12.3767 18.2321 13.1404Z" fill="#9747FF"/>
</svg>
