<svg width="36" height="25" viewBox="0 0 36 25" fill="none" xmlns="http://www.w3.org/2000/svg">
<path d="M23.4 0.950001H12.6C10.9453 0.950001 9.30689 1.24875 7.77819 1.82919C6.24949 2.40963 4.86047 3.2604 3.69045 4.33292C2.52044 5.40543 1.59233 6.6787 0.959118 8.08001C0.325909 9.48132 0 10.9832 0 12.5C0 14.0168 0.325909 15.5187 0.959118 16.92C1.59233 18.3213 2.52044 19.5946 3.69045 20.6671C4.86047 21.7396 6.24949 22.5904 7.77819 23.1708C9.30689 23.7513 10.9453 24.05 12.6 24.05H23.4C25.0547 24.05 26.6931 23.7513 28.2218 23.1708C29.7505 22.5904 31.1395 21.7396 32.3095 20.6671C33.4796 19.5946 34.4077 18.3213 35.0409 16.92C35.6741 15.5187 36 14.0168 36 12.5C36 10.9832 35.6741 9.48132 35.0409 8.08001C34.4077 6.6787 33.4796 5.40543 32.3095 4.33292C31.1395 3.2604 29.7505 2.40963 28.2218 1.82919C26.6931 1.24875 25.0547 0.950001 23.4 0.950001V0.950001ZM23.4 20.75C21.0128 20.7498 18.7235 19.8803 17.0357 18.3328C15.3478 16.7853 14.3998 14.6866 14.4 12.4983C14.4002 10.3101 15.3488 8.21155 17.0369 6.66438C18.7251 5.1172 21.0146 4.24813 23.4018 4.24835C24.5838 4.24846 25.7542 4.46198 26.8462 4.87672C27.9382 5.29147 28.9304 5.89931 29.7661 6.66554C30.6019 7.43178 31.2648 8.34141 31.717 9.34248C32.1692 10.3436 32.4019 11.4165 32.4018 12.5C32.4017 13.5835 32.1687 14.6564 31.7163 15.6574C31.2639 16.6584 30.6008 17.5679 29.7649 18.334C28.929 19.1001 27.9366 19.7077 26.8446 20.1223C25.7525 20.5368 24.582 20.7501 23.4 20.75V20.75Z" fill="#9747FF"/>
</svg>
