<svg width="36" height="33" viewBox="0 0 36 33" fill="none" xmlns="http://www.w3.org/2000/svg">
<g clip-path="url(#clip0_215_268)">
<path d="M23.4 4.95001H12.6C10.9453 4.95001 9.30689 5.24876 7.77819 5.8292C6.24949 6.40965 4.86047 7.26041 3.69045 8.33293C2.52044 9.40545 1.59233 10.6787 0.959118 12.08C0.325909 13.4813 0 14.9832 0 16.5C0 18.0168 0.325909 19.5187 0.959118 20.92C1.59233 22.3213 2.52044 23.5946 3.69045 24.6671C4.86047 25.7396 6.24949 26.5904 7.77819 27.1708C9.30689 27.7513 10.9453 28.05 12.6 28.05H23.4C25.0547 28.05 26.6931 27.7513 28.2218 27.1708C29.7505 26.5904 31.1395 25.7396 32.3095 24.6671C33.4796 23.5946 34.4077 22.3213 35.0409 20.92C35.6741 19.5187 36 18.0168 36 16.5C36 14.9832 35.6741 13.4813 35.0409 12.08C34.4077 10.6787 33.4796 9.40545 32.3095 8.33293C31.1395 7.26041 29.7505 6.40965 28.2218 5.8292C26.6931 5.24876 25.0547 4.95001 23.4 4.95001ZM23.4 24.75C21.0128 24.7498 18.7235 23.8803 17.0357 22.3328C15.3478 20.7853 14.3998 18.6866 14.4 16.4984C14.4002 14.3101 15.3488 12.2116 17.0369 10.6644C18.7251 9.11721 21.0146 8.24814 23.4018 8.24836C24.5838 8.24847 25.7542 8.46199 26.8462 8.87673C27.9382 9.29148 28.9304 9.89932 29.7661 10.6656C30.6019 11.4318 31.2648 12.3414 31.717 13.3425C32.1692 14.3436 32.4019 15.4165 32.4018 16.5C32.4017 17.5835 32.1688 18.6564 31.7163 19.6574C31.2639 20.6584 30.6008 21.5679 29.7649 22.334C28.929 23.1001 27.9366 23.7077 26.8446 24.1223C25.7525 24.5368 24.582 24.7501 23.4 24.75Z" fill="#CE222B"/>
</g>
<defs>
<clipPath id="clip0_215_268">
<rect width="36" height="33" fill="white"/>
</clipPath>
</defs>
</svg>
